HIERARCHY
ROOT Hips
{
	OFFSET 0.00000 0.00000 0.00000
	CHANNELS 6 Xposition Yposition Zposition Zrotation Yrotation Xrotation 
	JOINT LHipJoint
	{
		OFFSET 0 0 0
		CHANNELS 3 Zrotation Yrotation Xrotation
		JOINT LeftUpLeg
		{
			OFFSET 1.64577 -1.42384 0.94276
			CHANNELS 3 Zrotation Yrotation Xrotation
			JOINT LeftLeg
			{
				OFFSET 2.11538 -5.81197 0.00000
				CHANNELS 3 Zrotation Yrotation Xrotation
				JOINT LeftFoot
				{
					OFFSET 2.36541 -6.49893 0.00000
					CHANNELS 3 Zrotation Yrotation Xrotation
					JOINT LeftToeBase
					{
						OFFSET 0.17759 -0.48793 1.73865
						CHANNELS 3 Zrotation Yrotation Xrotation
						End Site
						{
							OFFSET 0.00000 -0.00000 0.91205
						}
					}
				}
			}
		}
	}
	JOINT RHipJoint
	{
		OFFSET 0 0 0
		CHANNELS 3 Zrotation Yrotation Xrotation
		JOINT RightUpLeg
		{
			OFFSET -1.43750 -1.42384 0.94276
			CHANNELS 3 Zrotation Yrotation Xrotation
			JOINT RightLeg
			{
				OFFSET -2.10480 -5.78291 0.00000
				CHANNELS 3 Zrotation Yrotation Xrotation
				JOINT RightFoot
				{
					OFFSET -2.34880 -6.45329 0.00000
					CHANNELS 3 Zrotation Yrotation Xrotation
					JOINT RightToeBase
					{
						OFFSET -0.22842 -0.62757 1.80469
						CHANNELS 3 Zrotation Yrotation Xrotation
						End Site
						{
							OFFSET -0.00000 -0.00000 0.95886
						}
					}
				}
			}
		}
	}
	JOINT LowerBack
	{
		OFFSET 0 0 0
		CHANNELS 3 Zrotation Yrotation Xrotation
		JOINT Spine
		{
			OFFSET 0.06217 1.93758 -0.49272
			CHANNELS 3 Zrotation Yrotation Xrotation
			JOINT Spine1
			{
				OFFSET -0.03114 2.03621 -0.05830
				CHANNELS 3 Zrotation Yrotation Xrotation
				JOINT Neck
				{
					OFFSET 0 0 0
					CHANNELS 3 Zrotation Yrotation Xrotation
					JOINT Neck1
					{
						OFFSET 0.04421 1.41010 0.26562
						CHANNELS 3 Zrotation Yrotation Xrotation
						JOINT Head
						{
							OFFSET -0.13407 1.43847 0.06181
							CHANNELS 3 Zrotation Yrotation Xrotation
							End Site
							{
								OFFSET -0.04980 1.45844 -0.00689
							}
						}
					}
				}
				JOINT LeftShoulder
				{
					OFFSET 0 0 0
					CHANNELS 3 Zrotation Yrotation Xrotation
					JOINT LeftArm
					{
						OFFSET 2.18382 1.47753 -0.35694
						CHANNELS 3 Zrotation Yrotation Xrotation
						JOINT LeftForeArm
						{
							OFFSET 5.05460 -0.00000 0.00000
							CHANNELS 3 Zrotation Yrotation Xrotation
							JOINT LeftHand
							{
								OFFSET 3.39013 -0.00000 0.00000
								CHANNELS 3 Zrotation Yrotation Xrotation
								JOINT LeftFingerBase
								{
									OFFSET 0 0 0
									CHANNELS 3 Zrotation Yrotation Xrotation
									JOINT LeftHandIndex1
									{
										OFFSET 0.57242 -0.00000 -0.00000
										CHANNELS 3 Zrotation Yrotation Xrotation
										End Site
										{
											OFFSET 0.46150 -0.00000 -0.00000
										}
									}
								}
								JOINT LThumb
								{
									OFFSET 0 0 0
									CHANNELS 3 Zrotation Yrotation Xrotation
									End Site
									{
										OFFSET 0.46855 -0.00000 0.46855
									}
								}
							}
						}
					}
				}
				JOINT RightShoulder
				{
					OFFSET 0 0 0
					CHANNELS 3 Zrotation Yrotation Xrotation
					JOINT RightArm
					{
						OFFSET -2.06033 1.72839 -0.47437
						CHANNELS 3 Zrotation Yrotation Xrotation
						JOINT RightForeArm
						{
							OFFSET -5.07010 -0.00000 0.00000
							CHANNELS 3 Zrotation Yrotation Xrotation
							JOINT RightHand
							{
								OFFSET -3.14957 -0.00000 -0.00000
								CHANNELS 3 Zrotation Yrotation Xrotation
								JOINT RightFingerBase
								{
									OFFSET 0 0 0
									CHANNELS 3 Zrotation Yrotation Xrotation
									JOINT RightHandIndex1
									{
										OFFSET -0.71819 -0.00000 -0.00000
										CHANNELS 3 Zrotation Yrotation Xrotation
										End Site
										{
											OFFSET -0.57902 -0.00000 -0.00000
										}
									}
								}
								JOINT RThumb
								{
									OFFSET 0 0 0
									CHANNELS 3 Zrotation Yrotation Xrotation
									End Site
									{
										OFFSET -0.58786 -0.00000 0.58786
									}
								}
							}
						}
					}
				}
			}
		}
	}
}
MOTION
Frames: 9
Frame Time: .0083333
8.4215 15.4310 4.0678 -179.6550 8.8698 175.6360 0.0000 0.0000 0.0000 -19.3365 -17.8314 8.7805 1.0448 6.5004 18.2435 -0.0424 22.0637 -30.8326 0.1312 -2.3345 -6.4310 0.0000 0.0000 0.0000 22.3495 16.0516 5.0137 -1.3424 -7.3357 20.7137 -1.0794 -20.6039 -35.8107 -0.7257 5.4431 -15.1768 -0.7468 1.7579 8.0641 -1.3318 2.7082 4.8219 -1.1517 1.5373 0.4999 11.5887 9.1218 -7.7719 -8.9659 11.5501 3.1088 -3.8628 5.6058 3.3730 0.0000 -0.0000 0.0000 -49.8296 -19.1075 4.5073 141.9347 -46.8810 -102.9868 -0.0000 -0.0000 3.2887 38.2563 0.9764 0.7698 -7.1250 0.0000 -0.0000 9.3000 31.1422 -3.1872 0.0000 -0.0000 0.0000 57.4963 25.6434 12.1460 -136.9371 49.7834 -99.2512 0.0000 -0.0000 -11.4239 -36.8436 13.9192 -10.2174 7.1250 -0.0000 -0.0000 -6.3107 -12.8503 -4.7789
8.4171 15.4330 4.0582 -179.6830 8.9596 175.7180 0.0000 0.0000 0.0000 -19.3841 -17.8259 8.7640 1.0404 6.4871 18.2045 -0.0486 22.1385 -30.8954 0.1327 -2.3483 -6.4691 0.0000 0.0000 0.0000 22.3070 16.1760 4.9691 -1.3479 -7.3500 20.7565 -1.0674 -20.6461 -35.7903 -0.7430 5.5064 -15.3588 -0.7833 1.7772 8.1174 -1.3341 2.7321 4.8232 -1.1377 1.5492 0.4709 11.4942 9.0762 -7.8340 -8.9220 11.4921 3.1726 -3.8366 5.5757 3.3883 0.0000 -0.0000 0.0000 -47.8451 -18.2590 0.0703 141.4081 -47.2132 -102.6013 -0.0000 -0.0000 3.2569 39.4450 -0.0642 -0.0528 -7.1250 0.0000 -0.0000 10.1058 29.8188 -3.7958 0.0000 -0.0000 0.0000 54.8523 25.4476 7.3943 -135.8547 50.3428 -98.4213 0.0000 -0.0000 -11.6167 -38.1908 14.1383 -10.8770 7.1250 -0.0000 -0.0000 -7.1613 -12.3136 -5.5136
8.4121 15.4342 4.0474 -179.7440 9.0143 175.7860 0.0000 0.0000 0.0000 -19.4754 -17.8271 8.7552 1.0364 6.4749 18.1689 -0.0581 22.2132 -30.9355 0.1371 -2.3863 -6.5746 0.0000 0.0000 0.0000 22.2240 16.2596 4.9258 -1.3539 -7.3658 20.8037 -1.0467 -20.7185 -35.7552 -0.7745 5.6192 -15.6834 -0.8636 1.7804 8.1498 -1.3341 2.7311 4.8226 -1.0942 1.5474 0.4491 11.3811 9.0278 -7.8586 -8.8556 11.4352 3.2541 -3.8020 5.5473 3.4007 0.0000 0.0000 0.0000 -46.2463 -17.3557 -4.0090 140.9319 -47.5080 -102.2510 -0.0000 -0.0000 3.2349 40.4889 -1.1309 -0.9653 -7.1250 0.0000 -0.0000 10.7629 28.4266 -4.4132 0.0000 0.0000 0.0000 52.4236 25.1360 3.0740 -134.6940 50.9175 -97.5239 0.0000 -0.0000 -11.7774 -39.1854 14.0415 -11.1874 7.1250 -0.0000 -0.0000 -7.8272 -12.2220 -6.0508
8.4072 15.4344 4.0354 -179.8210 9.0374 175.8300 0.0000 0.0000 0.0000 -19.5869 -17.8175 8.7597 1.0328 6.4641 18.1372 -0.0682 22.2700 -30.9474 0.1428 -2.4352 -6.7099 0.0000 0.0000 0.0000 22.1276 16.3101 4.9024 -1.3603 -7.3824 20.8533 -1.0307 -20.7890 -35.7443 -0.8050 5.7260 -15.9914 -0.9684 1.7746 8.1783 -1.3295 2.7161 4.8188 -1.0311 1.5379 0.4245 11.2714 8.9711 -7.8233 -8.7966 11.3734 3.3298 -3.7731 5.5174 3.4020 -0.0000 0.0000 0.0000 -45.0305 -16.4044 -7.6584 140.5754 -47.7253 -101.9877 -0.0000 -0.0000 3.2690 41.2682 -2.0460 -1.7945 -7.1250 0.0000 -0.0000 11.2150 27.2083 -4.9345 -0.0000 0.0000 0.0000 50.2497 24.6568 -0.7692 -133.5934 51.4393 -96.6664 0.0000 -0.0000 -11.8456 -39.6243 13.7449 -11.1296 7.1250 -0.0000 -0.0000 -8.1645 -12.4947 -6.2702
8.4025 15.4338 4.0227 -179.8930 9.0343 175.8480 0.0000 0.0000 0.0000 -19.6941 -17.7890 8.7785 1.0302 6.4560 18.1135 -0.0746 22.2938 -30.9378 0.1484 -2.4823 -6.8405 0.0000 0.0000 0.0000 22.0457 16.3456 4.9160 -1.3664 -7.3982 20.9006 -1.0266 -20.8431 -35.7804 -0.8246 5.7939 -16.1875 -1.0664 1.7667 8.2249 -1.3224 2.6982 4.8108 -0.9699 1.5270 0.3860 11.1997 8.9168 -7.7533 -8.7643 11.3167 3.4146 -3.7588 5.4904 3.4049 0.0000 -0.0000 0.0000 -44.1812 -15.4144 -10.8038 140.3871 -47.8389 -101.8483 -0.0000 -0.0000 3.3570 41.8349 -2.6679 -2.3861 -7.1250 0.0000 -0.0000 11.5387 26.3640 -5.3162 0.0000 -0.0000 0.0000 48.3654 23.9848 -4.0967 -132.6542 51.8673 -95.9298 0.0000 -0.0000 -11.7959 -39.5061 13.4604 -10.8644 7.1250 -0.0000 -0.0000 -8.1362 -12.8731 -6.1831
8.3984 15.4331 4.0099 -179.9430 9.0102 175.8450 0.0000 0.0000 0.0000 -19.7755 -17.7378 8.8096 1.0275 6.4479 18.0898 -0.0811 22.2943 -30.8940 0.1553 -2.5391 -6.9980 0.0000 0.0000 0.0000 21.9973 16.3854 4.9677 -1.3725 -7.4140 20.9479 -1.0410 -20.8612 -35.8778 -0.8258 5.7980 -16.1994 -1.1236 1.7578 8.2924 -1.3215 2.6819 4.8043 -0.9387 1.5183 0.3396 11.1862 8.8648 -7.6712 -8.7807 11.2621 3.5002 -3.7683 5.4640 3.4126 0.0000 -0.0000 0.0000 -43.6512 -14.4081 -13.4203 140.3905 -47.8369 -101.8507 -0.0000 -0.0000 3.4405 42.2090 -2.7395 -2.4823 -7.1250 0.0000 -0.0000 11.8045 26.2469 -5.4768 0.0000 -0.0000 0.0000 46.8038 23.1399 -6.8890 -131.9264 52.1884 -95.3561 0.0000 -0.0000 -11.6364 -38.9776 13.3843 -10.6086 7.1250 -0.0000 -0.0000 -7.8023 -13.0771 -5.8907
8.3947 15.4323 3.9974 -179.9580 8.9751 175.8340 0.0000 0.0000 0.0000 -19.8128 -17.6687 8.8478 1.0239 6.4370 18.0578 -0.0918 22.2885 -30.8138 0.1643 -2.6114 -7.1986 0.0000 0.0000 0.0000 21.9917 16.4170 5.0285 -1.3792 -7.4315 21.0001 -1.0532 -20.8900 -35.9748 -0.8278 5.8047 -16.2189 -1.1319 1.7444 8.3742 -1.3221 2.6635 4.8013 -0.9367 1.5098 0.2911 11.2311 8.8241 -7.6131 -8.8478 11.2197 3.6169 -3.7992 5.4420 3.4410 -0.0000 0.0000 0.0000 -43.3876 -13.4019 -15.5465 140.5842 -47.7199 -101.9942 -0.0000 -0.0000 3.4886 42.2871 -2.3530 -2.1385 -7.1250 0.0000 -0.0000 11.9278 26.7522 -5.3917 -0.0000 0.0000 0.0000 45.5563 22.1737 -9.1442 -131.4143 52.4089 -94.9510 0.0000 -0.0000 -11.4076 -38.2394 13.6438 -10.5303 7.1250 -0.0000 -0.0000 -7.2740 -12.9082 -5.5108
8.3918 15.4322 3.9857 -179.9540 8.9330 175.8200 0.0000 0.0000 0.0000 -19.8236 -17.5918 8.8917 1.0188 6.4215 18.0125 -0.1075 22.2887 -30.7077 0.1753 -2.6968 -7.4356 0.0000 0.0000 0.0000 22.0053 16.4490 5.0877 -1.3870 -7.4516 21.0605 -1.0790 -20.8738 -36.0961 -0.8181 5.7715 -16.1229 -1.1168 1.7270 8.4632 -1.3238 2.6418 4.8015 -0.9489 1.5003 0.2430 11.3092 8.7883 -7.5939 -8.9453 11.1808 3.7632 -3.8419 5.4203 3.4888 -0.0000 0.0000 0.0000 -43.3283 -12.4212 -17.2698 140.9133 -47.5194 -102.2373 -0.0000 -0.0000 3.5418 41.9324 -1.6466 -1.4786 -7.1250 0.0000 -0.0000 11.7791 27.7006 -5.0526 -0.0000 0.0000 0.0000 44.5839 21.1354 -10.9084 -131.0868 52.5477 -94.6912 0.0000 -0.0000 -11.1590 -37.4445 14.2727 -10.6913 7.1250 -0.0000 -0.0000 -6.6506 -12.3037 -5.1160
8.3893 15.4322 3.9748 -179.9650 8.8847 175.8020 0.0000 0.0000 0.0000 -19.8502 -17.5259 8.9429 1.0130 6.4036 17.9601 -0.1256 22.3017 -30.6026 0.1870 -2.7852 -7.6812 0.0000 0.0000 0.0000 21.9977 16.4704 5.1364 -1.3953 -7.4730 21.1244 -1.1171 -20.8065 -36.2289 -0.7973 5.6992 -15.9141 -1.1172 1.7115 8.5535 -1.3330 2.6222 4.8039 -0.9602 1.4920 0.1962 11.3937 8.7507 -7.6201 -9.0367 11.1354 3.9399 -3.8820 5.3947 3.5522 -0.0000 0.0000 0.0000 -43.3910 -11.5000 -18.6620 141.3137 -47.2720 -102.5320 -0.0000 -0.0000 3.6291 41.0840 -0.7372 -0.6427 -7.1250 0.0000 -0.0000 11.2770 28.9195 -4.4970 -0.0000 0.0000 0.0000 43.8215 20.0579 -12.2841 -130.8782 52.6351 -94.5255 0.0000 -0.0000 -10.9195 -36.7251 15.0693 -10.9771 7.1250 -0.0000 -0.0000 -6.0538 -11.4911 -4.7537
